<svg width="293" height="57" viewBox="0 0 293 57" fill="none" xmlns="http://www.w3.org/2000/svg">
<g clip-path="url(#clip0)">
<path d="M77.1749 11.6672C75.7474 9.47275 73.3256 8.13702 70.7143 8.11658C69.6386 8.10295 68.5698 8.34147 67.5888 8.79807C66.6485 9.25467 65.8029 9.89527 65.1196 10.6926C64.4093 11.5172 63.8545 12.4645 63.4892 13.4936C63.0833 14.618 62.8804 15.8038 62.8939 17.0032C62.8804 18.2163 63.0833 19.4089 63.4892 20.547C63.8613 21.5692 64.4228 22.5097 65.1399 23.3275C65.8232 24.1385 66.662 24.7995 67.6091 25.2697C68.5698 25.7263 69.6116 25.958 70.6737 25.9444C73.0753 25.9444 75.2468 24.8063 77.1681 22.5233V32.439L76.3969 32.7389C75.3483 33.1546 74.2727 33.4817 73.1767 33.7134C72.2093 33.9247 71.2149 34.0269 70.2272 34.0337C68.2247 34.0405 66.2493 33.6112 64.4363 32.7661C62.6098 31.9211 60.9659 30.7149 59.6129 29.2156C58.1787 27.6209 57.0354 25.7809 56.2506 23.7841C55.3915 21.5965 54.9585 19.2658 54.9856 16.9146C54.9585 14.5839 55.3847 12.2737 56.2304 10.1065C57.0016 8.13021 58.1381 6.31744 59.5723 4.75682C60.9388 3.27798 62.5759 2.09219 64.3957 1.24714C66.2494 0.395273 68.2653 -0.0340672 70.3016 -0.0204373C71.4449 -0.0204373 72.5882 0.115861 73.6976 0.388458C74.9086 0.695129 76.0789 1.11765 77.2087 1.65603L77.1749 11.6672Z" fill="#523A89"/>
<path d="M87.8574 22.0939C87.8507 22.789 87.9724 23.4773 88.2227 24.1247C88.4527 24.7108 88.7775 25.256 89.1901 25.733C89.569 26.1828 90.0358 26.544 90.5702 26.803C91.6797 27.3141 92.9582 27.3141 94.0609 26.803C94.6021 26.5508 95.0892 26.1896 95.4816 25.733C95.8943 25.256 96.219 24.7176 96.449 24.1247C96.6926 23.5046 96.8143 22.8503 96.8143 22.1825C96.8143 21.5214 96.6926 20.8604 96.449 20.2402C96.219 19.6541 95.8943 19.1157 95.4816 18.6387C95.1095 18.1685 94.636 17.78 94.1015 17.5074C92.9785 16.9827 91.6864 16.9827 90.5634 17.5074C90.0222 17.7596 89.5419 18.1208 89.1495 18.5774C88.7436 19.0476 88.4122 19.5792 88.1821 20.1584C87.9521 20.7718 87.8371 21.4328 87.8574 22.0939ZM80.5241 22.0053C80.5106 20.4378 80.815 18.8908 81.4103 17.4461C81.9583 16.0695 82.7769 14.8223 83.8119 13.766C84.8876 12.7097 86.1594 11.8715 87.5598 11.3058C89.0684 10.6925 90.6784 10.3926 92.3088 10.4131C93.9189 10.3926 95.5154 10.6925 97.0173 11.2854C98.4176 11.8374 99.6962 12.6688 100.779 13.7251C101.854 14.7815 102.693 16.049 103.261 17.4461C103.863 18.9658 104.168 20.5878 104.148 22.2233C104.168 23.8589 103.857 25.4809 103.241 26.9938C102.666 28.3908 101.827 29.6516 100.765 30.7147C99.6827 31.7779 98.3973 32.6025 96.9834 33.134C95.441 33.7201 93.8039 34.0063 92.16 33.9859C90.5567 34.0063 88.9669 33.7133 87.4718 33.134C86.0985 32.582 84.8538 31.7438 83.8255 30.6875C82.7701 29.5971 81.938 28.3091 81.3833 26.8916C80.7812 25.3378 80.4903 23.6749 80.5241 22.0053Z" fill="#523A89"/>
<path d="M106.598 11.2174H113.545V13.9979C114.276 12.9007 115.277 12.0147 116.441 11.415C117.523 10.9516 118.687 10.7267 119.857 10.754C121.081 10.7199 122.299 10.9788 123.409 11.5036C124.39 12.0011 125.249 12.7235 125.918 13.6162C126.48 14.3522 126.866 15.1905 127.068 16.0969C127.285 17.1191 127.386 18.1686 127.38 19.2181V33.1887H120.432V22.094C120.452 21.2149 120.378 20.3289 120.222 19.4634C120.114 18.8705 119.857 18.3185 119.471 17.8551C119.194 17.5348 118.835 17.2826 118.436 17.1259C118.044 16.9828 117.631 16.9078 117.212 16.9078C116.177 16.8465 115.169 17.2826 114.499 18.0868C113.802 19.0613 113.464 20.254 113.532 21.4466V33.1682H106.584L106.598 11.2174Z" fill="#523A89"/>
<path d="M144.928 19.0135C144.745 18.0185 144.245 17.1053 143.514 16.4102C141.999 15.129 139.786 15.129 138.271 16.4102C137.554 17.119 137.101 18.0594 136.986 19.0612L144.928 19.0135ZM136.79 23.5046C136.79 26.8439 138.197 28.5135 141.018 28.5135C142.452 28.5544 143.785 27.7571 144.434 26.4622H151.186C149.806 31.4985 146.396 34.02 140.97 34.02C139.408 34.0404 137.852 33.7542 136.397 33.1817C135.058 32.657 133.847 31.8528 132.846 30.8101C131.838 29.7538 131.06 28.4999 130.559 27.1233C129.997 25.5899 129.727 23.9612 129.747 22.3324C129.727 20.6559 129.991 18.9863 130.518 17.3916C130.985 15.9877 131.729 14.6929 132.724 13.6025C133.684 12.5666 134.855 11.7624 136.16 11.2309C137.608 10.6516 139.157 10.3654 140.713 10.3926C142.249 10.3722 143.778 10.6516 145.212 11.2309C146.511 11.7624 147.661 12.5939 148.595 13.6502C149.555 14.7815 150.279 16.1036 150.705 17.5347C151.213 19.2043 151.463 20.9421 151.443 22.6868V23.5046H136.79Z" fill="#523A89"/>
<path d="M169.179 18.3253C168.151 17.4735 166.865 16.9964 165.533 16.9555C164.254 16.9419 163.023 17.4803 162.157 18.4344C161.717 18.9182 161.372 19.4839 161.142 20.104C160.892 20.7923 160.763 21.5215 160.777 22.2575C160.763 22.9799 160.892 23.7023 161.142 24.377C161.359 24.9903 161.683 25.556 162.11 26.0466C162.529 26.5169 163.043 26.8849 163.625 27.137C164.234 27.4028 164.89 27.5323 165.553 27.5255C166.913 27.505 168.212 26.9666 169.199 26.0262V32.6162C167.691 33.3931 166.027 33.8156 164.329 33.8565C162.921 33.8565 161.535 33.5839 160.236 33.0387C158.95 32.5072 157.794 31.7098 156.819 30.708C155.805 29.6585 155.006 28.425 154.452 27.0689C153.843 25.5696 153.545 23.9613 153.565 22.3461C153.545 20.7174 153.836 19.0954 154.411 17.5757C154.939 16.1991 155.723 14.9315 156.718 13.8547C157.699 12.8121 158.876 11.9806 160.188 11.415C161.555 10.8289 163.023 10.5291 164.511 10.5427C166.148 10.5291 167.765 10.9379 169.199 11.7421L169.179 18.3253Z" fill="#523A89"/>
<path d="M180.889 17.6778V33.1749H173.941V17.6778H171.621V11.2173H173.921V4.64087H180.876V11.2241H184.826V17.6914L180.889 17.6778Z" fill="#523A89"/>
<path d="M194.291 22.1349C194.291 22.7959 194.406 23.457 194.643 24.0771C194.866 24.6632 195.191 25.2084 195.611 25.6786C196.416 26.6123 197.586 27.1439 198.81 27.137C199.419 27.137 200.015 27.0076 200.556 26.7486C201.097 26.4964 201.577 26.1352 201.976 25.6786C202.382 25.2084 202.707 24.67 202.944 24.0908C203.194 23.4774 203.316 22.8164 203.309 22.1485C203.316 21.4807 203.187 20.8264 202.944 20.2063C202.714 19.6202 202.389 19.075 201.976 18.6048C201.577 18.1754 201.104 17.8279 200.569 17.5962C200.021 17.3372 199.426 17.2077 198.817 17.2077C197.593 17.2009 196.422 17.7325 195.617 18.6661C195.211 19.1295 194.88 19.6611 194.65 20.2335C194.413 20.8332 194.291 21.4807 194.291 22.1349ZM203.052 11.2174H210.04V33.1751H203.052V30.7353C201.706 32.7457 199.433 33.9179 197.024 33.8566C195.658 33.8702 194.305 33.5703 193.067 32.9774C191.869 32.3845 190.807 31.5463 189.948 30.5172C189.021 29.42 188.318 28.1525 187.851 26.7963C187.337 25.297 187.087 23.716 187.1 22.1281C187.093 20.6083 187.344 19.0954 187.831 17.6575C188.284 16.3081 188.974 15.0542 189.867 13.9502C190.719 12.9075 191.782 12.0556 192.972 11.4423C194.21 10.8221 195.583 10.5018 196.964 10.5154C199.331 10.4814 201.584 11.5377 203.072 13.3845L203.052 11.2174Z" fill="#523A89"/>
<path d="M30.1583 2.64429C39.0069 2.64429 46.1778 9.8681 46.1778 18.782C46.1778 27.6959 39.0069 34.9198 30.1583 34.9198C21.3096 34.9198 14.1387 27.6959 14.1387 18.782C14.1387 9.8681 21.3096 2.64429 30.1583 2.64429Z" fill="#523A89"/>
<path d="M27.8513 38.9473C18.4276 39.1926 10.5937 31.6962 10.3434 22.203C10.2622 18.8978 11.1214 15.6402 12.8262 12.8188C6.09498 18.6047 5.29671 28.793 11.0402 35.5671C16.4793 41.9935 25.9097 43.1044 32.6748 38.1226C31.112 38.6338 29.4884 38.9132 27.8513 38.9473Z" fill="#523A89"/>
<path d="M20.7281 45.6872C11.3112 46.1301 3.3217 38.7973 2.88197 29.3109C2.72637 25.9988 3.53141 22.7141 5.18208 19.845C-1.33264 25.8694 -1.7656 36.0781 4.21468 42.6409C9.74847 48.7198 18.9489 49.6126 25.5313 44.7058C23.9888 45.2646 22.372 45.5986 20.7281 45.6872Z" fill="#523A89"/>
<path d="M283.691 23.825C283.447 24.5473 283.069 25.2084 282.561 25.7672C282.108 26.2579 281.546 26.6463 280.924 26.8985C280.308 27.1438 279.652 27.2665 278.989 27.2665C278.022 27.2801 277.075 27.0075 276.263 26.4828C275.356 25.849 274.612 25.0176 274.091 24.043L273.943 23.6818L274.044 23.273L274.423 22.8027L274.673 22.7346L274.903 22.9935C275.336 23.7432 275.911 24.4042 276.581 24.9358C277.271 25.4605 278.123 25.7331 278.989 25.7059C279.503 25.7059 280.011 25.6173 280.491 25.4401C280.978 25.2629 281.418 24.9835 281.783 24.6155C282.176 24.2066 282.487 23.7296 282.69 23.198C282.933 22.5574 283.055 21.8691 283.035 21.1876C283.042 20.5742 282.879 19.9677 282.581 19.4362C282.318 18.9796 281.966 18.5843 281.54 18.2708C281.134 17.9709 280.674 17.7392 280.2 17.5757C279.727 17.4121 279.294 17.2758 278.908 17.1668C277.596 16.792 276.391 16.0968 275.397 15.1564C274.558 14.2023 274.132 12.9415 274.22 11.6671C274.152 10.2565 274.612 8.86621 275.512 7.78264C276.432 6.79448 277.738 6.26291 279.084 6.33106C279.93 6.32425 280.762 6.54232 281.492 6.96485C282.277 7.40782 282.954 8.02116 283.474 8.75036L283.583 9.0911L283.474 9.45911L283.157 9.98386L282.879 10.0452L282.602 9.7726C282.182 9.24785 281.702 8.77762 281.161 8.38235C280.593 8.00753 279.916 7.8099 279.233 7.81671C278.78 7.79627 278.32 7.84397 277.873 7.95301C276.912 8.17109 276.101 8.83895 275.701 9.75215C275.438 10.3655 275.316 11.0265 275.343 11.6944C275.329 12.2328 275.444 12.7575 275.681 13.2414C275.904 13.6639 276.209 14.0319 276.581 14.3318C276.967 14.6453 277.399 14.8974 277.853 15.095C278.326 15.2927 278.813 15.4767 279.307 15.6471C279.801 15.8106 280.369 16.0355 281.005 16.2945C281.574 16.5398 282.094 16.8669 282.561 17.269C283.042 17.6915 283.427 18.2095 283.691 18.7955C284.016 19.552 284.165 20.3698 284.137 21.1876C284.144 22.0872 283.995 22.9799 283.691 23.825ZM271.237 27.1166H270.506L270.046 26.769V26.7077L268.503 9.71808L261.596 25.3788L261.407 25.6037L261.211 25.6582H260.399L260.196 25.6037L260 25.3788L253.127 9.62267L251.625 26.6804L251.232 27.1234H251.165H250.319L250.042 26.9871V26.6259L251.895 7.11478C251.909 6.87625 252.119 6.69225 252.355 6.70588H252.389H253.357L253.688 6.97848L260.893 23.2116L267.996 7.03981L268.382 6.70588H269.342L269.802 7.05344L269.809 7.09433L271.642 26.6532C271.67 26.9666 271.541 27.1166 271.243 27.1166H271.237ZM231.248 20.363C231.702 21.4329 232.358 22.4006 233.177 23.2184C233.995 24.043 234.949 24.6973 236.004 25.1607C237.08 25.6377 238.244 25.8831 239.421 25.8763C240.408 25.8763 241.396 25.6922 242.316 25.3242C243.202 24.9767 244.034 24.4928 244.785 23.8931L245.144 23.7364L245.469 23.9136L245.874 24.5473L245.949 24.8949L245.705 25.1539C244.839 25.8626 243.865 26.4214 242.81 26.8099C241.694 27.2188 240.517 27.4232 239.326 27.4096C237.926 27.4164 236.545 27.137 235.253 26.585C232.744 25.5151 230.741 23.5047 229.686 20.9763C229.138 19.6815 228.86 18.2844 228.867 16.8737C228.854 15.4631 229.138 14.066 229.686 12.7712C231.343 8.89347 235.145 6.3924 239.339 6.41284C240.523 6.39921 241.707 6.60366 242.823 7.01255C243.872 7.40782 244.846 7.96664 245.719 8.66858L245.962 9.07066L245.902 9.30237L245.442 9.90208L245.211 10.0384L244.785 9.92934C244.021 9.34326 243.182 8.86621 242.289 8.49821C241.362 8.1302 240.381 7.93938 239.394 7.9462C238.21 7.93938 237.033 8.1779 235.95 8.64813C234.895 9.10473 233.934 9.76578 233.122 10.5904C232.304 11.4082 231.654 12.3759 231.194 13.439C230.714 14.5226 230.471 15.6948 230.477 16.8806C230.491 18.08 230.755 19.2658 231.235 20.363H231.248ZM221.602 33.8702H293V0H221.602V33.8702Z" fill="#523A89"/>
<path d="M133.866 47.5409H137.56V52.8702C136.985 53.0542 136.396 53.1905 135.801 53.2859C135.118 53.3881 134.428 53.4358 133.738 53.429C132.304 53.5176 130.896 52.9792 129.882 51.9501C128.908 50.7984 128.407 49.3128 128.502 47.7998C128.475 46.764 128.698 45.7349 129.165 44.8081C129.598 43.9767 130.267 43.302 131.093 42.8658C132.026 42.3956 133.054 42.1639 134.09 42.1843C135.199 42.1707 136.308 42.3956 137.33 42.825L136.877 43.9426C135.984 43.5405 135.016 43.3293 134.042 43.3088C132.885 43.2475 131.762 43.6768 130.944 44.5082C130.159 45.4214 129.753 46.6072 129.821 47.8135C129.733 49.0333 130.118 50.2396 130.89 51.18C131.735 51.991 132.885 52.4135 134.049 52.325C134.793 52.325 135.537 52.2364 136.254 52.0592V48.6858H133.826L133.866 47.5409Z" fill="#7CB18C"/>
<path d="M143.702 44.9241C144.027 44.9241 144.352 44.9513 144.67 45.0127L144.494 46.1644C144.203 46.0962 143.905 46.0554 143.608 46.0485C142.951 46.0485 142.336 46.3416 141.923 46.8527C141.443 47.4115 141.192 48.1271 141.22 48.8631V53.2724H139.988V45.074H141.01L141.152 46.5937H141.206C141.47 46.1031 141.842 45.6805 142.295 45.3602C142.708 45.074 143.202 44.9241 143.702 44.9241Z" fill="#7CB18C"/>
<path d="M147.363 45.074V50.4032C147.323 50.9416 147.485 51.48 147.817 51.9025C148.202 52.2637 148.716 52.4409 149.237 52.4C149.934 52.4682 150.624 52.2092 151.111 51.6981C151.564 51.0234 151.774 50.2056 151.7 49.3946V45.0808H152.931V53.2928H151.909L151.733 52.1956H151.666C151.416 52.6181 151.057 52.9588 150.617 53.1701C150.137 53.395 149.616 53.504 149.082 53.4904C148.277 53.5517 147.472 53.2996 146.856 52.7817C146.308 52.1547 146.037 51.3369 146.112 50.5055V45.0808H147.363V45.074Z" fill="#7CB18C"/>
<path d="M159.167 46.0075C158.491 45.9462 157.821 46.2052 157.368 46.7095C156.935 47.3637 156.739 48.1406 156.793 48.9243V49.2037C156.718 50.0692 156.914 50.9347 157.368 51.6844C157.821 52.2159 158.504 52.4953 159.201 52.434C159.864 52.4476 160.486 52.1205 160.852 51.5685C161.285 50.8597 161.494 50.0283 161.447 49.1901C161.501 48.3655 161.291 47.5409 160.852 46.839C160.48 46.2733 159.837 45.9394 159.167 45.9735V46.0075ZM159.35 53.463C158.849 53.4699 158.349 53.3745 157.889 53.17C157.449 52.9724 157.07 52.6521 156.786 52.2568H156.698C156.752 52.7066 156.786 53.1632 156.786 53.6198V57H155.555V45.0739H156.522L156.691 46.1983H156.752C157.029 45.7826 157.415 45.4487 157.862 45.2238C158.315 45.0194 158.809 44.9171 159.309 44.924C160.27 44.8694 161.197 45.2851 161.812 46.0416C162.448 46.9548 162.759 48.0588 162.692 49.1697C162.759 50.2873 162.441 51.3981 161.792 52.3113C161.197 53.061 160.297 53.4835 159.35 53.463Z" fill="#7CB18C"/>
<path d="M165.703 49.1765C165.642 50.0216 165.865 50.8666 166.325 51.5754C167.245 52.5976 168.815 52.6726 169.829 51.7458L170.005 51.5754C170.465 50.8666 170.688 50.0216 170.634 49.1765C170.688 48.3315 170.472 47.4933 170.005 46.7913C169.552 46.2393 168.869 45.9326 168.152 45.9735C167.448 45.9258 166.765 46.2189 166.318 46.7709C165.858 47.4864 165.648 48.3315 165.703 49.1765ZM171.92 49.1765C172.001 50.3078 171.656 51.4255 170.952 52.3182C170.235 53.1087 169.2 53.5313 168.138 53.4699C167.462 53.4768 166.792 53.2996 166.21 52.952C165.621 52.5976 165.155 52.0661 164.871 51.4391C164.553 50.7303 164.39 49.9534 164.41 49.1765C164.336 48.0453 164.674 46.9276 165.378 46.0485C166.095 45.2784 167.11 44.8695 168.145 44.9308C169.18 44.8831 170.174 45.3057 170.864 46.0757C171.588 46.9276 171.967 48.0384 171.92 49.1765Z" fill="#7CB18C"/>
<path d="M184.355 49.2038C184.104 48.3111 183.84 47.3638 183.57 46.4506C183.32 47.3638 183.062 48.3043 182.785 49.2038H184.355ZM188.508 53.5995H186.093C185.647 53.5995 185.593 53.4359 185.423 53.0066C185.423 52.918 185.288 52.584 185.146 52.032H181.96C181.818 52.5636 181.709 52.8975 181.676 53.0066C181.534 53.4359 181.452 53.5995 181.013 53.5995H178.631C178.381 53.5995 178.232 53.3882 178.368 53.0134C178.503 52.6454 181.743 42.6888 181.858 42.4093C181.973 42.1299 182.054 41.9868 182.312 41.9868H184.781C185.038 41.9868 185.133 42.1231 185.254 42.4093C185.369 42.6888 188.61 52.6454 188.745 53.0134C188.894 53.3814 188.759 53.5995 188.508 53.5995Z" fill="#67A772"/>
<path d="M197.743 48.9038H200.036L200.266 49.3468C199.833 51.9024 197.634 53.7697 195.064 53.7697C191.783 53.5039 189.334 50.6076 189.598 47.2955C189.834 44.3583 192.148 42.0276 195.064 41.7891C197.607 41.7891 199.792 43.6223 200.246 46.1438L200.023 46.5731H197.668L197.357 46.3551C197.059 45.3328 196.092 44.6445 195.03 44.7058C193.555 44.7058 192.493 46.0484 192.493 47.7657C192.493 49.4831 193.555 50.8325 195.03 50.8325C196.112 50.8938 197.093 50.1782 197.377 49.1219L197.743 48.9038Z" fill="#67A772"/>
<path d="M207.45 46.3756C207.45 45.8577 207.153 44.8218 205.603 44.8218H204.812V48.0998H205.63C206.517 48.2088 207.328 47.5682 207.43 46.6755L207.443 46.4097V46.3756H207.45ZM210.576 46.3756C210.576 48.7268 209.317 50.9825 205.827 50.9825H204.812V53.1906L204.447 53.6063H202.133L201.768 53.1906V42.4093L202.133 41.9868H205.827C208.891 42.0004 210.576 43.9086 210.576 46.3756Z" fill="#67A772"/>
</g>
<defs>
<clipPath id="clip0">
<rect width="293" height="57" fill="white"/>
</clipPath>
</defs>
</svg>
